<svg xmlns="http://www.w3.org/2000/svg" width="122" height="122" fill="none" viewBox="0 0 90 60">
  <path fill="#fff" d="M31.45 99.22h2.767V84.305H31.45v14.913Zm-3.19-17.563h9.122v20.188h-9.121V81.657Zm-10.41-.727h3.19l-.071 1.782h5.91v19.111h-5.394V99.29h2.227V85.48h-2.86l-.68 16.366h-3.189l.68-16.367h-1.196v-2.767h1.313l.07-1.782Zm43.05 5.65-.351 8.184h-3.212l.398-8.183h3.166Zm-10.974 8.325h-3.188l-.446-8.324h3.213l.421 8.324Zm5.464-.915 6.144 7.855h-4.432l-3.47-4.642-3.634 4.642h-4.41l6.238-7.808V86.23h3.564v7.761Zm6.003-12.216v2.978H45.425l-1.407 17.093h-3.564l1.383-17.093h-1.36v-2.978h1.595l.07-.844h3.587l-.07.844h15.734Zm15.57 17.751h5.135V92.49h-5.135v7.035Zm8.324-16.04v2.58h-4.385v4.104h4.361v11.677H73.891V90.169h3.611v-9.24h3.4v2.557h4.385Zm-12.357 2.44-.399 12.263h-2.86l.375-12.264h2.884Zm-4.9 12.263h-2.861l-.352-12.264H67.7l.328 12.264Zm2.86-16.016h2.274v2.556h-8.582v-2.556h2.744V80.93h3.564v1.242Zm2.368 19.674h-8.77v-2.485h8.77v2.485Z"/>
  <path fill="#B1D600" d="M72.89 54.647c1.728.307 3.497.55 5.289.701-6.264 8.19-16.17 13.486-27.296 13.486-11.136 0-21.03-5.296-27.307-13.486a58.037 58.037 0 0 0 5.29-.701 57.637 57.637 0 0 0 3.782-.841 55.568 55.568 0 0 0 8.99-3.156c.824-.383 1.63-.771 2.442-1.177a62.76 62.76 0 0 0 3.52-1.972c.383-.226.76-.47 1.137-.714.377-.243.754-.487 1.12-.742.336-.232.69-.458 1.015-.702.336.226.684.47 1.02.702.749.51 1.503.986 2.268 1.456.383.232.772.458 1.149.678.394.227.783.447 1.177.662.406.214.795.417 1.201.632.73.365 1.473.73 2.216 1.079.063.029.145.058.214.098a63.99 63.99 0 0 0 3.765 1.537 57.44 57.44 0 0 0 9.007 2.46Zm12.4-20.225a34.14 34.14 0 0 1-3.416 14.93 48.736 48.736 0 0 1-3.7-.227 45.525 45.525 0 0 1-4.508-.65c-.498-.093-.986-.203-1.484-.313a42.68 42.68 0 0 1-2.906-.742 38.792 38.792 0 0 1-2.82-.905c-.469-.157-.933-.337-1.391-.51a42.837 42.837 0 0 1-2.715-1.16c-.44-.204-.887-.407-1.322-.639a46.623 46.623 0 0 1-4.17-2.331 15.467 15.467 0 0 1-.905-.569c.081-.08.133-.133.214-.203.61-.55 1.201-1.12 1.787-1.71a55.073 55.073 0 0 0 4.576-5.134.323.323 0 0 1 .081-.093 52.216 52.216 0 0 0 1.526-2.053 62.426 62.426 0 0 0 2.198-3.335c0-.012 0-.012.012-.029.191-.296.377-.603.556-.916 0-.012 0-.012.012-.024 2.134-3.932 2.604-8.143-2.564-8.601-.017-.012-.04-.012-.058-.012h-.011c-4.414-.423-8.898-.62-13.416-.62-4.524 0-8.979.197-13.392.62h-.012c-5.226.458-4.768 4.698-2.61 8.637.139.243.273.487.418.719a56.11 56.11 0 0 0 10.52 12.754c-.3.203-.608.395-.904.569a44.417 44.417 0 0 1-4.176 2.331c-.43.232-.876.435-1.322.638-.888.418-1.793.807-2.71 1.16-.434.174-.892.337-1.339.5-.499.173-1.027.353-1.537.515a28.35 28.35 0 0 1-1.34.4 47.114 47.114 0 0 1-4.373 1.056c-1.485.296-2.993.51-4.518.65-1.23.122-2.46.197-3.7.226-2.188-4.507-3.406-9.582-3.406-14.93 0-10.248 4.484-19.453 11.583-25.74a33.72 33.72 0 0 1 5.725-4.119C38.807 1.657 44.654.01 50.878.01 57.1.01 62.936 1.657 67.97 4.562a33.407 33.407 0 0 1 5.736 4.118c7.1 6.3 11.583 15.493 11.583 25.742Z"/>
</svg>
